<?xml version="1.0" encoding="UTF-8" standalone="no"?>
<!-- Created with Inkscape (http://www.inkscape.org/) -->

<svg
   xmlns:dc="http://purl.org/dc/elements/1.1/"
   xmlns:cc="http://creativecommons.org/ns#"
   xmlns:rdf="http://www.w3.org/1999/02/22-rdf-syntax-ns#"
   xmlns:svg="http://www.w3.org/2000/svg"
   xmlns="http://www.w3.org/2000/svg"
   xmlns:sodipodi="http://sodipodi.sourceforge.net/DTD/sodipodi-0.dtd"
   xmlns:inkscape="http://www.inkscape.org/namespaces/inkscape"
   sodipodi:docname="poets.svg"
   inkscape:version="0.91 r13725"
   version="1.1"
   id="svg3338"
   viewBox="0 0 744.09448819 1052.3622047"
   height="297mm"
   width="210mm">
  <sodipodi:namedview
     inkscape:window-maximized="1"
     inkscape:window-y="-8"
     inkscape:window-x="-8"
     inkscape:window-height="561"
     inkscape:window-width="1093"
     showgrid="false"
     inkscape:current-layer="layer1"
     inkscape:document-units="px"
     inkscape:cy="760.96547"
     inkscape:cx="425.06307"
     inkscape:zoom="0.65043458"
     inkscape:pageshadow="2"
     inkscape:pageopacity="0.0"
     borderopacity="1.0"
     bordercolor="#666666"
     pagecolor="#ffffff"
     id="base" />
  <defs
     id="defs3340" />
  <metadata
     id="metadata3343">
    <rdf:RDF>
      <cc:Work
         rdf:about="">
        <dc:format>image/svg+xml</dc:format>
        <dc:type
           rdf:resource="http://purl.org/dc/dcmitype/StillImage" />
        <dc:title />
      </cc:Work>
    </rdf:RDF>
  </metadata>
  <g
     id="layer1"
     inkscape:groupmode="layer"
     inkscape:label="Layer 1">
    <path
       style="font-style:normal;font-variant:normal;font-weight:bold;font-stretch:normal;font-size:medium;line-height:125%;font-family:'Berlin Sans FB Demi';-inkscape-font-specification:'Berlin Sans FB Demi Bold';letter-spacing:0px;word-spacing:0px;fill:#000000;fill-opacity:1;stroke:none;stroke-width:1px;stroke-linecap:butt;stroke-linejoin:miter;stroke-opacity:1"
       d="M 591.92188 188.2168 L 590.42773 188.30469 L 561.27734 199.48242 L 535.74414 196.64648 L 535.84766 192.78711 L 535.49609 191.11719 L 533.47461 190.85352 L 521.96094 191.73242 L 492.78125 193.40234 L 450.68164 191.55664 L 449.45117 191.46875 L 447.3418 198.06055 L 446.72656 206.32227 L 445.14453 213.79297 L 443.91406 220.56055 L 445.32031 221.43945 L 473.35742 219.68164 L 474.06055 250.26758 L 473.36133 274.99805 L 439.22461 289.8125 L 439.43164 287.88477 L 437.49805 284.7207 L 423.69922 285.59961 L 409.90039 286.39062 L 397.06836 286.39062 L 385.81836 282.43555 L 384.93945 273.82227 L 385.02734 268.37305 L 389.24609 266.61523 L 398.5625 266.61523 L 421.41406 267.14258 L 429.32422 268.02148 L 431.87305 266.26367 L 432.57617 252.20117 L 434.1582 238.75391 L 432.04883 236.73242 L 427.30273 237.08398 L 422.46875 237.52344 L 400.05664 238.13867 L 395.83789 238.31445 L 392.41016 238.40234 L 386.69727 236.73242 L 384.93945 228.82227 L 385.37891 222.05469 L 391.0918 219.85742 L 433.10352 221.79102 L 434.94922 221.87891 L 436.70703 220.0332 L 435.74023 207.64062 L 434.42188 195.33594 L 429.14844 191.9082 L 409.8125 192.25977 L 390.47656 192.61133 L 370.87695 192.25977 L 351.36523 191.9082 L 349.16797 193.92969 L 349.25586 195.16016 L 350.22266 216.16602 L 351.27734 253.51953 L 351.02344 260.11328 L 336.03516 252.98242 L 331.74219 228.625 L 318.49414 207.72852 L 298.23438 193.42578 L 273.49414 188.65625 L 248.64258 193.42578 L 228.40625 207.72852 L 215.22266 228.53711 L 215.16406 228.875 L 201.9043 238.61133 L 199.46094 222.29492 L 184.98242 201.97266 L 161.67969 192.74219 L 114.79297 192.01172 L 96.613281 193.46875 L 96.996094 208.27734 L 97.962891 299.55078 L 99.322266 315.06055 L 117.18555 315.50391 L 134.33594 314.69727 L 133.06641 294.85156 L 134.30078 287.67773 L 141.71484 286.70703 L 162.16797 287.13867 L 181.5 281.33984 L 197.2793 262.9668 L 197.31055 262.81055 L 210.91602 254.19336 L 215.22266 278.76758 L 228.40625 299.48633 L 248.64258 313.72461 L 273.49414 318.4707 L 298.45508 313.76953 L 318.66992 299.66211 L 331.78711 278.89844 L 331.81836 278.7168 L 350.06055 285.23242 L 349.08008 312.66992 L 351.98047 315.21875 L 372.01953 315.30664 L 392.14648 315.39453 L 429.58789 316.27344 L 432.22461 316.53711 L 435.125 314.86719 L 436.04297 310.5918 L 472.69531 298.60938 L 472.30273 312.49414 L 474.76367 315.21875 L 490.67188 315.92188 L 506.14062 315.21875 L 508.60156 314.7793 L 509.39258 312.66992 L 508.51367 281.46875 L 507.72266 250.26758 L 508.25 219.24219 L 534.70508 220.56055 L 536.63867 218.80273 L 536.02344 212.47461 L 536.00195 212.20703 L 549.4707 211.81641 L 545.7793 226.44922 L 551.84375 246.66406 L 563.09375 259.93555 L 569.07031 272.67969 L 559.92969 286.21484 L 543.05469 291.13672 L 541.73633 292.36719 L 548.67969 307.48438 L 557.64453 319.78906 L 558.78711 319.70117 L 590.86719 305.375 L 602.13867 291.35742 L 605.89648 274.78906 L 599.65625 255.54102 L 587.9668 240.77539 L 581.63867 227.5918 L 587.35156 218.27539 L 598.42578 215.375 L 600.97461 215.63867 L 603.34766 215.90234 L 604.92969 214.4082 L 604.66602 213.5293 L 594.03125 190.32617 L 591.92188 188.2168 z "
       id="path3351" />
  </g>
</svg>
